<?xml version="1.0" encoding="UTF-8" standalone="no"?>
<!-- Created with Inkscape (http://www.inkscape.org/) -->

<svg
   xmlns:dc="http://purl.org/dc/elements/1.1/"
   xmlns:cc="http://creativecommons.org/ns#"
   xmlns:rdf="http://www.w3.org/1999/02/22-rdf-syntax-ns#"
   xmlns:svg="http://www.w3.org/2000/svg"
   xmlns="http://www.w3.org/2000/svg"
   xmlns:sodipodi="http://sodipodi.sourceforge.net/DTD/sodipodi-0.dtd"
   xmlns:inkscape="http://www.inkscape.org/namespaces/inkscape"
   width="210mm"
   height="297mm"
   viewBox="0 0 210 297"
   version="1.1"
   id="svg8"
   inkscape:version="0.92.3 (2405546, 2018-03-11)"
   sodipodi:docname="PingCare.svg">
  <defs
     id="defs2" />
  <sodipodi:namedview
     id="base"
     pagecolor="#ffffff"
     bordercolor="#666666"
     borderopacity="1.0"
     inkscape:pageopacity="0.0"
     inkscape:pageshadow="2"
     inkscape:zoom="0.49497474"
     inkscape:cx="265.80978"
     inkscape:cy="683.67483"
     inkscape:document-units="mm"
     inkscape:current-layer="layer3"
     showgrid="false"
     inkscape:window-width="1366"
     inkscape:window-height="713"
     inkscape:window-x="0"
     inkscape:window-y="0"
     inkscape:window-maximized="1" />
  <metadata
     id="metadata5">
    <rdf:RDF>
      <cc:Work
         rdf:about="">
        <dc:format>image/svg+xml</dc:format>
        <dc:type
           rdf:resource="http://purl.org/dc/dcmitype/StillImage" />
        <dc:title />
      </cc:Work>
    </rdf:RDF>
  </metadata>
  <g
     inkscape:label="Layer 1"
     inkscape:groupmode="layer"
     id="layer1">
    <path
       style="fill:#0000ff;stroke:#000000;stroke-width:3.66499996;stroke-linecap:butt;stroke-linejoin:miter;stroke-miterlimit:4;stroke-dasharray:none;stroke-opacity:1"
       d="m 106.10617,35.127734 c 5.44121,0.498021 29.36839,-1.068208 49.05431,23.406359 5.15666,5.2295 18.48927,23.26306 11.61087,55.968647 -4.87951,13.51427 -12.54598,25.35636 -19.84375,37.41966 -39.96191,62.20562 -42.71131,87.12351 -42.71131,87.12351 v 0 c -7.244077,-42.65649 -28.887104,-70.48305 -41.199414,-90.90327 -8.01697,-11.96926 -14.52962,-23.9385 -18.52083,-35.90776 -5.28154,-27.906759 4.32771,-46.062851 18.6159,-60.365022 5.70392,-5.709507 19.80393,-17.012817 42.994224,-16.742124 z"
       id="path3761"
       inkscape:connector-curvature="0"
       sodipodi:nodetypes="ccccccccsc" />
    <ellipse
       style="opacity:0.01000001;fill:#00170b;fill-opacity:1;stroke-width:0.96499997;stroke-miterlimit:4;stroke-dasharray:none"
       id="path821"
       cx="314.32498"
       cy="169.92439"
       rx="74.147476"
       ry="45.825661" />
    <circle
       style="opacity:1;fill:#000000;fill-opacity:1;stroke-width:0.96499997;stroke-miterlimit:4;stroke-dasharray:none"
       id="path823"
       cx="413.73325"
       cy="148.39815"
       r="84.457176" />
  </g>
  <g
     inkscape:groupmode="layer"
     id="layer2"
     inkscape:label="Layer 2">
    <path
       style="fill:none;stroke-width:2.85714293"
       d="m 393.03056,906.51969 c -2.65844,-8.64286 -5.71927,-19.48575 -6.80183,-24.09529 -1.08257,-4.60954 -3.69041,-11.68097 -5.7952,-15.71429 -2.10479,-4.03331 -3.83482,-8.95788 -3.8445,-10.94348 -0.01,-1.9856 -1.24103,-5.84274 -2.73634,-8.57143 -1.4953,-2.72869 -4.83534,-10.10409 -7.42231,-16.3898 -2.58698,-6.28571 -9.07783,-20.75369 -14.42413,-32.15103 -5.34629,-11.39737 -9.72054,-21.89737 -9.72054,-23.33334 0,-1.43597 -0.96428,-3.03943 -2.14285,-3.56326 -1.17857,-0.5238 -4.6675,-6.09523 -7.75318,-12.38094 -3.08568,-6.28572 -9.01668,-16.57143 -13.18001,-22.85714 -4.16332,-6.28572 -8.47532,-14.32143 -9.58221,-17.85715 -1.10689,-3.53571 -3.21161,-6.42857 -4.67714,-6.42857 -1.46553,0 -2.66461,-1.27074 -2.66461,-2.82386 0,-2.75297 -30.96867,-54.3352 -34.32712,-57.17614 -0.92884,-0.78571 -4.76735,-6.57143 -8.53002,-12.85714 -3.76267,-6.28572 -7.70008,-12.07143 -8.7498,-12.85714 -1.04973,-0.78572 -2.81138,-4.32143 -3.91479,-7.85715 -1.10341,-3.53571 -3.20527,-6.42857 -4.6708,-6.42857 -1.46553,0 -2.66461,-1.50591 -2.66461,-3.34646 0,-1.84054 -1.77166,-5.37625 -3.93701,-7.85714 -4.46173,-5.11186 -20.4774,-34.18068 -36.3297,-65.93926 -17.47554,-35.01058 -26.48583,-88.27824 -19.96332,-118.02051 1.44491,-6.58872 4.17102,-19.69377 6.05802,-29.12234 2.88887,-14.43448 17.75651,-50.93053 22.69672,-55.71429 0.81141,-0.78571 5.83089,-7.85714 11.15441,-15.71428 19.67962,-29.0458 69.9398,-68.76494 94.6066,-74.76481 3.92857,-0.95558 8.42857,-2.70486 10,-3.88729 6.20115,-4.66611 49.10038,-11.3479 72.85714,-11.3479 25.07391,0 67.58351,6.84697 72.71428,11.712 1.49286,1.41554 4.70715,2.57909 7.14286,2.58567 9.86652,0.0266 56.5012,28.07722 70.49083,42.39996 49.135,50.30498 69.64374,97.70708 69.64969,160.98221 0.003,39.24199 -10.13283,72.38613 -38.47309,125.7983 -10.26029,19.33731 -41.69886,71.61743 -44.29814,73.66471 -0.99757,0.78572 -4.89235,6.57143 -8.655,12.85715 -3.76266,6.28571 -7.55195,12.07142 -8.4206,12.85714 -1.85137,1.67457 -2.53152,2.7922 -27.81886,45.71428 -10.64671,18.07143 -24.52686,43.14286 -30.8448,55.71429 -6.31795,12.57143 -12.45146,23.28571 -13.63003,23.80951 -1.17857,0.52383 -2.14286,2.24443 -2.14286,3.8236 0,1.57918 -3.85714,11.20458 -8.57142,21.38983 -4.71429,10.18523 -8.57143,19.19886 -8.57143,20.03032 0,0.83145 -1.84612,5.56317 -4.10248,10.51494 -4.61219,10.12183 -20.37653,57.3634 -22.0727,66.14609 -0.72636,3.76102 -2.75579,0.34282 -5.93712,-10 z M 417.11738,520.4214 c 29.5333,-6.33377 49.87922,-26.11846 60.39011,-58.72428 5.98988,-18.58125 5.98988,-26.05933 0,-44.64059 -14.70895,-45.62866 -52.2262,-66.86374 -102.36463,-57.93924 -25.15471,4.47747 -52.99827,33.61655 -58.91538,61.6566 -11.00859,52.16768 25.9901,99.91217 79.48903,102.5756 3.45837,0.17228 13.08876,-1.14546 21.40087,-2.92809 z"
       id="path3753"
       inkscape:connector-curvature="0"
       transform="scale(0.26458333)" />
    <path
       style="fill:none;stroke-width:2.85714293"
       d="m 1188,642.23397 c 0,-2.35714 1.9286,-4.28571 4.2857,-4.28571 2.3572,0 4.2857,1.92857 4.2857,4.28571 0,2.35714 -1.9285,4.28572 -4.2857,4.28572 -2.3571,0 -4.2857,-1.92858 -4.2857,-4.28572 z"
       id="path3755"
       inkscape:connector-curvature="0"
       transform="scale(0.26458333)" />
    <path
       style="fill:none;stroke-width:1.06908083"
       d="m 314.325,169.9244 c 0,-0.62366 -1.02056,-1.13393 -2.26786,-1.13393 -1.24736,0 -2.26787,0.51027 -2.26787,1.13393 0,0.62366 1.02051,1.13393 2.26787,1.13393 1.2473,0 2.26786,-0.51027 2.26786,-1.13393 z"
       id="path3757"
       inkscape:connector-curvature="0" />
  </g>
  <g
     inkscape:groupmode="layer"
     id="layer3"
     inkscape:label="Layer 3">
    <path
       sodipodi:nodetypes="ccsscscssssc"
       inkscape:connector-curvature="0"
       id="path4570"
       d="m 168.10209,108.13101 -35.65149,21.96237 c -3.33242,1.73455 -24.862,14.76625 -24.862,14.76625 -12.923543,6.55458 -35.339739,18.75255 -40.219641,11.41283 -16.449458,-24.74116 -16.967622,-30.48102 -17.488663,-29.95998 1.11559,1.52626 9.584431,-0.71427 13.323498,-2.88519 29.304976,-17.01464 47.384396,-27.060653 82.802396,-54.282797 15.86117,-12.084405 4.67885,-13.812454 6.92907,-14.162445 1.05897,-0.164709 12.27664,17.167769 13.70749,22.075219 1.62212,5.563454 2.78091,12.554982 2.75743,19.144803 -0.006,1.812548 -0.0833,3.91715 -0.24318,5.61504 -0.29086,3.08949 -0.84687,4.94927 -1.05491,6.3139 z"
       style="fill:#ffbc89;fill-opacity:1;stroke:#000000;stroke-width:1.90188622;stroke-linecap:butt;stroke-linejoin:miter;stroke-miterlimit:4;stroke-dasharray:none;stroke-opacity:1" />
    <path
       sodipodi:nodetypes="ccccccccc"
       inkscape:connector-curvature="0"
       id="path4574"
       d="m 153.51166,113.90932 c -14.90778,9.06415 -29.83079,18.59118 -44.69197,26.23869 -2.8443,1.76915 -4.86909,1.10102 -6.7417,-0.0197 L 77.718901,122.50642 c -1.473878,-1.42669 -2.736282,-2.89305 0.765479,-5.25302 14.835826,-7.61963 29.21408,-16.23495 43.34554,-25.387315 2.47514,-1.518573 4.98387,-1.618085 7.54574,0.522287 l 24.51773,17.785758 c 2.66212,1.75012 1.42421,2.6829 -0.38173,3.73519 z"
       style="fill:#ff9955;stroke:#000000;stroke-width:0.52145839px;stroke-linecap:butt;stroke-linejoin:miter;stroke-opacity:1" />
    <ellipse
       style="opacity:0.01000001;fill:#00170b;fill-opacity:1;stroke-width:0.96499997;stroke-miterlimit:4;stroke-dasharray:none"
       id="path4586"
       cx="21.922617"
       cy="-57.730652"
       rx="13.985119"
       ry="14.174108" />
    <circle
       style="opacity:1;fill:#ffb380;fill-opacity:1;stroke-width:0.87287533;stroke-miterlimit:4;stroke-dasharray:none"
       id="path827"
       cx="90.349739"
       cy="119.29583"
       r="1.7008929" />
    <circle
       r="1.7008929"
       cy="126.03455"
       cx="96.908974"
       id="circle830"
       style="opacity:1;fill:#ffb380;fill-opacity:1;stroke-width:0.87287533;stroke-miterlimit:4;stroke-dasharray:none" />
    <circle
       style="opacity:1;fill:#ffb380;fill-opacity:1;stroke-width:0.87287533;stroke-miterlimit:4;stroke-dasharray:none"
       id="circle832"
       cx="103.38042"
       cy="132.77327"
       r="1.7008929" />
    <circle
       r="1.7008929"
       cy="128.16878"
       cx="112.83376"
       id="circle834"
       style="opacity:1;fill:#ffb380;fill-opacity:1;stroke-width:0.87287533;stroke-miterlimit:4;stroke-dasharray:none" />
    <circle
       style="opacity:1;fill:#ffb380;fill-opacity:1;stroke-width:0.87287533;stroke-miterlimit:4;stroke-dasharray:none"
       id="circle836"
       cx="105.44585"
       cy="120.51753"
       r="1.7008929" />
    <circle
       r="1.7008929"
       cy="114.02316"
       cx="99.06218"
       id="circle838"
       style="opacity:1;fill:#ffb380;fill-opacity:1;stroke-width:0.87287533;stroke-miterlimit:4;stroke-dasharray:none" />
    <circle
       style="opacity:1;fill:#ffb380;fill-opacity:1;stroke-width:0.87287533;stroke-miterlimit:4;stroke-dasharray:none"
       id="circle840"
       cx="108.5843"
       cy="109.97611"
       r="1.7008929" />
    <circle
       r="1.7008929"
       cy="116.20323"
       cx="114.27686"
       id="circle842"
       style="opacity:1;fill:#ffb380;fill-opacity:1;stroke-width:0.87287533;stroke-miterlimit:4;stroke-dasharray:none" />
    <circle
       style="opacity:1;fill:#ffb380;fill-opacity:1;stroke-width:0.87287533;stroke-miterlimit:4;stroke-dasharray:none"
       id="circle844"
       cx="121.24092"
       cy="123.02973"
       r="1.7008929" />
    <circle
       r="1.7008929"
       cy="117.64635"
       cx="130.86981"
       id="circle846"
       style="opacity:1;fill:#ffb380;fill-opacity:1;stroke-width:0.87287533;stroke-miterlimit:4;stroke-dasharray:none" />
    <circle
       style="opacity:1;fill:#ffb380;fill-opacity:1;stroke-width:0.87287533;stroke-miterlimit:4;stroke-dasharray:none"
       id="circle848"
       cx="124.57392"
       cy="110.90764"
       r="1.7008929" />
    <circle
       r="1.7008929"
       cy="104.30254"
       cx="118.59116"
       id="circle850"
       style="opacity:1;fill:#ffb380;fill-opacity:1;stroke-width:0.87287533;stroke-miterlimit:4;stroke-dasharray:none" />
    <circle
       style="opacity:1;fill:#ffb380;fill-opacity:1;stroke-width:0.87287533;stroke-miterlimit:4;stroke-dasharray:none"
       id="circle852"
       cx="126.92564"
       cy="99.816628"
       r="1.7008929" />
    <circle
       r="1.7008929"
       cy="105.06245"
       cx="134.04231"
       id="circle854"
       style="opacity:1;fill:#ffb380;fill-opacity:1;stroke-width:0.87287533;stroke-miterlimit:4;stroke-dasharray:none" />
    <circle
       style="opacity:1;fill:#ffb380;fill-opacity:1;stroke-width:0.87287533;stroke-miterlimit:4;stroke-dasharray:none"
       id="circle856"
       cx="141.04831"
       cy="111.19783"
       r="1.7008929" />
  </g>
</svg>
